<svg xmlns="http://www.w3.org/2000/svg" id="Layer_1" data-name="Layer 1" viewBox="0 0 196.59 67.08">
    <defs>
        <style>
            .cls-1{fill:#fff}.cls-2{fill:#fdb515}
        </style>
    </defs>
    <path d="M4.59 52.82v-.38L5 52.4c.28 0 .38-.09.38-.19v-2.47h-3v2.46c0 .09.09.14.38.19h.38v.38H.38v-.38h.43c.24 0 .38-.09.38-.19v-5.25c0-.09 0-.14-.38-.19H.43v-.38h2.79v.38h-.43c-.28 0-.38.09-.38.19v2.32h3v-2.32c0-.09-.09-.14-.38-.19h-.38v-.38h2.74v.38h-.43c-.24 0-.38.09-.38.19v5.26c0 .09 0 .14.38.19h.38v.38H4.59zM11.13 53a.73.73 0 0 1-.76-.81A1.91 1.91 0 0 1 9 53a1.23 1.23 0 0 1-1.28-1.23c0-.85.85-1.37 2.65-1.8v-.13c0-1-.38-1.33-1-1.33a1.07 1.07 0 0 0-.76.24 1.06 1.06 0 0 1 .24.57.57.57 0 0 1-.57.52.54.54 0 0 1-.57-.52c0-.57 1.18-1.33 2.13-1.33 1.18 0 1.66.47 1.56 2.08l-.09 1.75c0 .28 0 .43.24.43A1.19 1.19 0 0 0 12 52l.19.24a1.59 1.59 0 0 1-1.06.76zm-.81-2.65c-1.32.29-1.6.72-1.6 1.15a.67.67 0 0 0 .71.71 1.46 1.46 0 0 0 .85-.43zM16 53a.73.73 0 0 1-.76-.81 1.91 1.91 0 0 1-1.33.81 1.23 1.23 0 0 1-1.28-1.23c0-.85.85-1.37 2.65-1.8v-.13c0-1-.38-1.33-1-1.33a1.07 1.07 0 0 0-.76.24 1.06 1.06 0 0 1 .24.57.57.57 0 0 1-.57.52.54.54 0 0 1-.57-.52c0-.57 1.18-1.33 2.13-1.33 1.18 0 1.66.47 1.56 2.08l-.09 1.75c0 .28 0 .43.24.43a1.19 1.19 0 0 0 .45-.25l.19.24A1.59 1.59 0 0 1 16 53zm-.81-2.65c-1.33.33-1.61.76-1.61 1.18a.67.67 0 0 0 .71.71 1.46 1.46 0 0 0 .85-.43zM19.14 53a5.08 5.08 0 0 1-1.52-.24v-1.37h.62l.24.95a1.6 1.6 0 0 0 .81.24.86.86 0 0 0 .95-.81c0-.47-.57-.66-1.14-.9s-1.42-.57-1.42-1.52a1.53 1.53 0 0 1 1.75-1.42 3.22 3.22 0 0 1 1.09.19l.38-.14v1.52h-.58l-.24-.9a1.43 1.43 0 0 0-.76-.24.72.72 0 0 0-.81.66c0 .47.38.62 1.09.9s1.47.62 1.47 1.52A1.67 1.67 0 0 1 19.14 53zM25.63 53a7.33 7.33 0 0 1-1.94-.28l-.14-1.94h.57l.47 1.47a2.53 2.53 0 0 0 1.18.24 1.17 1.17 0 0 0 1.33-1.09c0-.85-.71-1.14-1.56-1.42-1-.38-1.89-.76-1.89-1.94 0-.95.71-1.85 2.27-1.85a4.91 4.91 0 0 1 1.33.14l.52-.14v2.13h-.53l-.38-1.42a2.78 2.78 0 0 0-1.09-.19 1 1 0 0 0-1.18.95c0 .81.71 1 1.52 1.33 1.14.38 2 .81 2 2C28.14 52 27.24 53 25.63 53zM30.89 53a2.19 2.19 0 0 1-2.13-2.37 2.53 2.53 0 0 1 2.51-2.65c1 0 1.56.47 1.56 1a.57.57 0 0 1-.62.62.81.81 0 0 1-.62-1 .85.85 0 0 0-.52-.14c-.71 0-1.28.62-1.28 1.75s.62 2 1.52 2a1.59 1.59 0 0 0 1.28-.62l.24.14A2 2 0 0 1 30.89 53zM36.14 52.82v-.38h.24c.28 0 .33-.09.33-.19v-2.13c0-1-.33-1.33-.95-1.33a1.85 1.85 0 0 0-1 .38v3c0 .09 0 .19.38.19h.33v.38h-2.36v-.38h.28c.24 0 .33-.09.33-.19V46.9a.29.29 0 0 0-.14-.28l-.58-.29v-.28l1.75-.52v3.17a3 3 0 0 1 1.71-.76 1.07 1.07 0 0 1 .85.33 1.56 1.56 0 0 1 .38 1.18v2.7c0 .09 0 .14.43.19h.24v.38h-2.22zM40.88 53a2.28 2.28 0 0 1-2.32-2.46A2.51 2.51 0 0 1 41.12 48a2.29 2.29 0 0 1 2.32 2.42A2.58 2.58 0 0 1 40.88 53zm.85-4.22a1.16 1.16 0 0 0-.81-.33c-.71 0-1.23.66-1.23 1.8a3 3 0 0 0 .52 2 1.16 1.16 0 0 0 .81.33c.71 0 1.23-.66 1.23-1.8a2.94 2.94 0 0 0-.52-2.03zM46.23 53a2.28 2.28 0 0 1-2.32-2.46A2.51 2.51 0 0 1 46.47 48a2.29 2.29 0 0 1 2.32 2.42A2.58 2.58 0 0 1 46.23 53zm.85-4.22a1.16 1.16 0 0 0-.81-.33c-.71 0-1.23.66-1.23 1.8a3 3 0 0 0 .52 2 1.16 1.16 0 0 0 .81.33c.71 0 1.23-.66 1.23-1.8a2.94 2.94 0 0 0-.51-2.03zM49 52.82v-.38h.28c.24 0 .33-.09.33-.19V46.9a.29.29 0 0 0-.14-.28l-.62-.28v-.28l1.75-.52v6.68c0 .09 0 .19.38.19h.28v.38H49zM55.66 53a2.28 2.28 0 0 1-2.32-2.46A2.51 2.51 0 0 1 55.9 48a2.29 2.29 0 0 1 2.32 2.42A2.61 2.61 0 0 1 55.66 53zm.85-4.22a1.16 1.16 0 0 0-.81-.33c-.71 0-1.23.66-1.23 1.8a3 3 0 0 0 .52 2 1.16 1.16 0 0 0 .81.33c.71 0 1.23-.66 1.23-1.8a2.94 2.94 0 0 0-.52-2.03zM62.06 46.85a.84.84 0 0 1-.76-.76H61a1.86 1.86 0 0 0-.66 1.75v.38h1.42l-.09.57H60.3v3.51c0 .09 0 .19.38.19h.52v.38h-2.56v-.38h.28c.24 0 .33-.09.33-.19v-3.5h-.85v-.57h.71v-.29a2.4 2.4 0 0 1 2.32-2.37.93.93 0 0 1 1 .76.5.5 0 0 1-.37.52zM66.65 52.82H63.9v-.38h.43c.28 0 .38-.09.38-.19v-5.3c0-.09 0-.14-.38-.19h-.38v-.38h2.79c1.8 0 2.46.62 2.46 1.47a1.83 1.83 0 0 1-1.71 1.66c1.33.14 1.94.81 1.94 1.61.02 1.04-.98 1.7-2.78 1.7zm-.28-6.11h-.48v2.56h.62A1.23 1.23 0 0 0 67.88 48a1.28 1.28 0 0 0-1.51-1.29zm0 3h-.43v2.59l.66.14h.19a1.31 1.31 0 0 0 1.42-1.28 1.56 1.56 0 0 0-1.84-1.46zM75.32 52.78l-1.75.22v-.79a3 3 0 0 1-1.71.76 1.22 1.22 0 0 1-.86-.34 1.56 1.56 0 0 1-.38-1.18v-2.7c0-.19-.09-.14-.43-.19h-.24v-.38h1.8v2.75c0 1 .33 1.33.95 1.33a1.85 1.85 0 0 0 1-.38v-3c0-.09 0-.14-.38-.19h-.33v-.38h1.71v3.88a.25.25 0 0 0 .14.28l.62.19zM77.45 53a5.08 5.08 0 0 1-1.52-.24v-1.37h.57l.24.95a1.6 1.6 0 0 0 .81.24.86.86 0 0 0 .95-.81c0-.47-.57-.66-1.14-.9s-1.42-.57-1.42-1.52a1.53 1.53 0 0 1 1.75-1.42 3.22 3.22 0 0 1 1.09.19l.38-.14v1.52h-.52l-.24-.85a1.43 1.43 0 0 0-.76-.24.72.72 0 0 0-.81.66c0 .47.38.62 1.09.9s1.47.62 1.47 1.52S78.73 53 77.45 53zM79.91 52.82v-.38h.24c.24 0 .33-.09.33-.19v-2.6c0-.66-.09-.76-.43-.85h-.24v-.33l1.76-.47v4.26c0 .09 0 .19.38.19h.24v.38h-2.28zm1-5.68a.71.71 0 1 1 .66-.71.66.66 0 0 1-.57.71zM85.88 52.82v-.38h.24c.28 0 .33-.09.33-.19v-2.13c0-1-.33-1.33-.95-1.33a1.85 1.85 0 0 0-1 .38v3c0 .09 0 .19.38.19h.33v.38h-2.36v-.38h.28c.24 0 .33-.09.33-.19v-2.52c0-.66-.09-.76-.43-.85h-.24v-.33l1.77-.47v.76a3 3 0 0 1 1.75-.76 1.22 1.22 0 0 1 .85.33 1.56 1.56 0 0 1 .38 1.18v2.7c0 .09 0 .14.43.19h.24v.38h-2.33zM90.43 53a2.19 2.19 0 0 1-2.13-2.4 2.5 2.5 0 0 1 2.46-2.65 1.57 1.57 0 0 1 1.71 1.61 2.31 2.31 0 0 1 0 .57h-3v.09A1.69 1.69 0 0 0 91 52.11a1.59 1.59 0 0 0 1.28-.62l.24.14A2.11 2.11 0 0 1 90.43 53zm.14-4.59a1.39 1.39 0 0 0-1.18 1.37h2c.04-.89-.3-1.41-.82-1.41zM94.69 53a5.08 5.08 0 0 1-1.52-.24v-1.37h.62l.21.91a1.6 1.6 0 0 0 .81.24.86.86 0 0 0 .95-.81c0-.47-.57-.66-1.14-.9s-1.42-.57-1.42-1.52a1.53 1.53 0 0 1 1.75-1.42 3.22 3.22 0 0 1 1.09.19l.38-.14v1.52h-.54l-.24-.9a1.43 1.43 0 0 0-.76-.24.72.72 0 0 0-.81.66c0 .47.38.62 1.09.9s1.47.62 1.47 1.52a1.67 1.67 0 0 1-1.94 1.6zM98.86 53a5.08 5.08 0 0 1-1.52-.24v-1.37h.62l.24.95a1.6 1.6 0 0 0 .81.24.86.86 0 0 0 .95-.81c0-.47-.57-.66-1.14-.9s-1.42-.57-1.42-1.52a1.53 1.53 0 0 1 1.7-1.45 3.22 3.22 0 0 1 1.09.19l.38-.14v1.52H100l-.24-.9a1.43 1.43 0 0 0-.76-.24.72.72 0 0 0-.81.66c0 .47.38.62 1.09.9s1.47.62 1.47 1.52A1.7 1.7 0 0 1 98.86 53zM7.2 59.27l-.47.09c-.38 0-.43.19-.43 2.08v1.8a2.29 2.29 0 0 1-2.56 2.37c-1.56 0-2.56-.76-2.56-2.27V59.5c0-.09 0-.14-.38-.19H.42v-.38h2.75v.38h-.43c-.28 0-.33.09-.33.19V63a1.66 1.66 0 0 0 1.71 2 1.61 1.61 0 0 0 1.71-1.9v-1.66c0-1.89-.09-2-.43-2.08l-.52-.09v-.38h2.37zM10.14 65.38V65h.24c.28 0 .33-.09.33-.19v-2.13c0-1-.33-1.33-.95-1.33a1.85 1.85 0 0 0-1 .38v3c0 .09 0 .19.38.19h.33v.38H7.11v-.38h.28c.24 0 .33-.09.33-.19V62.2c0-.66-.09-.76-.43-.85h-.24V61l1.71-.47v.77a3 3 0 0 1 1.71-.76 1.22 1.22 0 0 1 .85.33 1.56 1.56 0 0 1 .38 1.18v2.7c0 .09 0 .14.43.19h.24v.38h-2.23zM12.74 65.38V65H13c.24 0 .33-.09.33-.19V62.2c0-.66-.09-.76-.43-.85h-.24V61l1.71-.47v4.26c0 .09 0 .19.38.19h.28v.38h-2.29zm1-5.64a.71.71 0 1 1 .71-.74.66.66 0 0 1-.67.74zM20.32 61.07h-.28a.87.87 0 0 0-.62.71L18 65.47h-.66l-1.56-3.93a.52.52 0 0 0-.52-.38l-.26-.09v-.38h2.46v.38l-.33.09a.24.24 0 0 0-.19.38L18 64.38l.95-2.61c.14-.43.14-.57-.19-.62l-.33-.09v-.38h1.94zM22.22 65.57a2.19 2.19 0 0 1-2.13-2.37 2.5 2.5 0 0 1 2.46-2.65 1.57 1.57 0 0 1 1.71 1.61 2.31 2.31 0 0 1 0 .57h-3v.09a1.69 1.69 0 0 0 1.56 1.94A1.59 1.59 0 0 0 24 64.1l.24.14a2.21 2.21 0 0 1-2.02 1.33zm.14-4.57a1.39 1.39 0 0 0-1.18 1.37h2c.03-.93-.3-1.37-.82-1.37zM28 61.82a.78.78 0 0 1-.62-.38 2.58 2.58 0 0 0-.95 1v2.32c0 .09 0 .19.38.19h.38v.38h-2.46v-.38h.28c.24 0 .33-.09.33-.19v-2.51c0-.66-.09-.76-.43-.85h-.24v-.33l1.71-.47v1.33c.52-.85.9-1.33 1.42-1.33a.62.62 0 0 1 .66.66.55.55 0 0 1-.46.56zM30.41 65.57a5.08 5.08 0 0 1-1.52-.24v-1.37h.62l.19.94a1.6 1.6 0 0 0 .81.24.86.86 0 0 0 .95-.81c0-.47-.57-.66-1.14-.9s-1.42-.57-1.42-1.52a1.53 1.53 0 0 1 1.75-1.42 3.22 3.22 0 0 1 1.09.19l.38-.14v1.52h-.52l-.24-.9a1.43 1.43 0 0 0-.76-.24.72.72 0 0 0-.81.66c0 .47.38.62 1.09.9s1.47.62 1.47 1.52a1.7 1.7 0 0 1-1.94 1.57zM32.88 65.38V65h.28c.24 0 .33-.09.33-.19V62.2c0-.66-.09-.76-.43-.85h-.24V61l1.71-.47v4.26c0 .09 0 .19.38.19h.24v.38h-2.27zm1-5.64a.71.71 0 1 1 .7-.74.66.66 0 0 1-.66.74zM37.42 65.57a1.23 1.23 0 0 1-1.28-1.52v-2.7h-.81V61l1.42-1.23h.43v.95h1.71l-.09.57h-1.61v2.46a.84.84 0 0 0 .85 1 1.77 1.77 0 0 0 .85-.24v.28a1.91 1.91 0 0 1-1.47.78zM44.24 61.07h-.28a.87.87 0 0 0-.62.71L42.11 65l-.57 1.7c-.28.9-.62 1.37-1.23 1.37a.67.67 0 0 1-.76-.62.52.52 0 0 1 .57-.57.8.8 0 0 1 .66.38 1.65 1.65 0 0 0 .43-.71l.33-1-1.85-4a.57.57 0 0 0-.52-.38l-.24-.09v-.38h2.42v.38l-.35.08a.22.22 0 0 0-.19.38l1.19 2.7.85-2.42c.14-.43.09-.57-.24-.62l-.33-.09v-.38h2zM48.46 65.57a2.28 2.28 0 0 1-2.32-2.46 2.51 2.51 0 0 1 2.56-2.51A2.29 2.29 0 0 1 51 63a2.61 2.61 0 0 1-2.54 2.57zm.85-4.22a1.16 1.16 0 0 0-.8-.35c-.71 0-1.23.66-1.23 1.8a3 3 0 0 0 .52 2 1.16 1.16 0 0 0 .81.33c.71 0 1.23-.66 1.23-1.8a2.94 2.94 0 0 0-.53-1.98zM54.81 59.46a.84.84 0 0 1-.81-.76h-.23a1.86 1.86 0 0 0-.66 1.75v.38h1.42l-.09.57h-1.38v3.51c0 .09 0 .19.38.19h.52v.38H51.4v-.38h.28c.24 0 .33-.09.33-.19V61.4h-.85v-.57H52v-.29a2.4 2.4 0 0 1 2.32-2.37.93.93 0 0 1 1 .76.45.45 0 0 1-.51.53zM62.72 65.38l-.62-.09a5 5 0 0 1-1.66.28c-2.08 0-3.65-1.18-3.65-3.32a3.42 3.42 0 0 1 3.69-3.46A5.32 5.32 0 0 1 62 59l.9-.19v2.23h-.61l-.29-1.4a2.52 2.52 0 0 0-1.42-.38c-1.47 0-2.42 1.18-2.42 2.89s.9 3 2.46 3a2.76 2.76 0 0 0 1.23-.28l.47-1.47h.62zM67.12 65.57a.73.73 0 0 1-.76-.81 1.91 1.91 0 0 1-1.33.81 1.23 1.23 0 0 1-1.28-1.23c0-.85.85-1.37 2.65-1.8v-.1c0-1-.38-1.33-1-1.33a1.07 1.07 0 0 0-.76.24 1.06 1.06 0 0 1 .24.57.57.57 0 0 1-.57.52.54.54 0 0 1-.57-.52c0-.57 1.18-1.33 2.13-1.33 1.18 0 1.66.47 1.56 2.08l-.09 1.75c0 .28 0 .43.24.43a1.19 1.19 0 0 0 .42-.23l.19.24a1.59 1.59 0 0 1-1.07.71zm-.76-2.65c-1.33.33-1.61.76-1.61 1.18a.67.67 0 0 0 .71.71 1.46 1.46 0 0 0 .85-.43zM68.55 65.38V65h.28c.24 0 .33-.09.33-.19V59.5a.29.29 0 0 0-.14-.28l-.62-.28v-.28l1.75-.52v6.68c0 .09 0 .19.38.19h.28v.38h-2.26zM71.48 65.38V65h.24c.24 0 .33-.09.33-.19V62.2c0-.66-.09-.76-.43-.85h-.24V61l1.71-.47v4.26c0 .09 0 .19.38.19h.28v.38h-2.27zm1.09-5.64a.71.71 0 1 1 .66-.74.66.66 0 0 1-.66.74zM77.88 59.46a.84.84 0 0 1-.76-.76h-.28a1.86 1.86 0 0 0-.66 1.75v.38h1.42l-.09.57h-1.39v3.51c0 .09 0 .19.38.19h.52v.38h-2.55v-.38h.28c.24 0 .33-.09.33-.19V61.4h-.85v-.57H75v-.29a2.4 2.4 0 0 1 2.32-2.37.93.93 0 0 1 1 .76.47.47 0 0 1-.44.53z" class="cls-1" transform="translate(0 -1)"/>
    <path d="M79.87 65.57a2.28 2.28 0 0 1-2.32-2.46 2.51 2.51 0 0 1 2.56-2.51 2.29 2.29 0 0 1 2.31 2.4 2.55 2.55 0 0 1-2.55 2.57zm.85-4.22a1.16 1.16 0 0 0-.81-.35c-.71 0-1.23.66-1.23 1.8a3 3 0 0 0 .52 2 1.16 1.16 0 0 0 .81.33c.71 0 1.23-.66 1.23-1.8a2.94 2.94 0 0 0-.52-1.98zM86.07 61.82a.78.78 0 0 1-.62-.38 2.58 2.58 0 0 0-.95 1v2.32c0 .09 0 .19.38.19h.38v.38H82.8v-.38h.28c.24 0 .33-.09.33-.19v-2.51c0-.66-.09-.76-.43-.85h-.24v-.33l1.71-.47v1.33c.52-.85.9-1.33 1.42-1.33a.62.62 0 0 1 .66.66.52.52 0 0 1-.46.56zM90.05 65.38V65h.24c.28 0 .33-.09.33-.19v-2.13c0-1-.33-1.33-.95-1.33a1.85 1.85 0 0 0-1 .38v3c0 .09 0 .19.38.19h.33v.38H87v-.38h.28c.24 0 .33-.09.33-.19V62.2c0-.66-.09-.76-.43-.85L87 61.3V61l1.71-.47v.77a3 3 0 0 1 1.71-.76 1.22 1.22 0 0 1 .85.33 1.56 1.56 0 0 1 .38 1.18v2.7c0 .09 0 .14.43.19h.24v.38h-2.27zM92.85 65.38V65h.28c.24 0 .33-.09.33-.19V62.2c0-.66-.09-.76-.43-.85h-.24V61l1.71-.47v4.26c0 .09 0 .19.38.19h.28v.38h-2.31zm1.09-5.64a.71.71 0 1 1 .66-.74.66.66 0 0 1-.66.74zM99.24 65.57a.73.73 0 0 1-.76-.81 1.91 1.91 0 0 1-1.33.81 1.23 1.23 0 0 1-1.28-1.23c0-.85.85-1.37 2.65-1.8v-.1c0-1-.38-1.33-1-1.33a1.07 1.07 0 0 0-.76.24 1.06 1.06 0 0 1 .24.57.57.57 0 0 1-.57.52.54.54 0 0 1-.57-.52c0-.57 1.18-1.33 2.13-1.33 1.18 0 1.66.47 1.56 2.08l-.09 1.75c0 .28 0 .43.24.43a1.19 1.19 0 0 0 .52-.24l.19.24a1.5 1.5 0 0 1-1.17.72zm-.76-2.65c-1.33.33-1.61.76-1.61 1.18a.67.67 0 0 0 .71.71 1.46 1.46 0 0 0 .85-.43zM105.45 65.38h-2.75V65h.43c.28 0 .38-.09.38-.19V59.5c0-.09 0-.14-.38-.19h-.38v-.38h2.79c1.8 0 2.46.62 2.46 1.47a1.83 1.83 0 0 1-1.7 1.6c1.33.14 1.94.81 1.94 1.61 0 1.15-.95 1.77-2.79 1.77zm-.24-6.06h-.47v2.56h.62a1.23 1.23 0 0 0 1.37-1.23 1.28 1.28 0 0 0-1.52-1.34zm0 2.94h-.43v2.61l.62.13h.19a1.31 1.31 0 0 0 1.41-1.28 1.59 1.59 0 0 0-1.84-1.47zM111.08 65.57A2.19 2.19 0 0 1 109 63.2a2.5 2.5 0 0 1 2.46-2.65 1.57 1.57 0 0 1 1.71 1.61 2.31 2.31 0 0 1 0 .57h-3v.09a1.69 1.69 0 0 0 1.56 1.94 1.59 1.59 0 0 0 1.28-.62l.24.14a2.21 2.21 0 0 1-2.17 1.29zm.1-4.57a1.39 1.39 0 0 0-1.18 1.34h2c.08-.9-.3-1.34-.82-1.34zM116.86 61.82a.78.78 0 0 1-.62-.38 2.58 2.58 0 0 0-.95 1v2.32c0 .09 0 .19.38.19h.38v.38h-2.51v-.38h.28c.24 0 .33-.09.33-.19v-2.51c0-.66-.09-.76-.43-.85h-.24v-.33l1.71-.47v1.33c.52-.85.9-1.33 1.42-1.33a.62.62 0 0 1 .66.66.55.55 0 0 1-.41.56zM120.89 65.38l-.52-.95-.81-1.33-.43.38v1.28c0 .09 0 .14.38.19h.24v.38h-2.32v-.38h.28c.24 0 .33-.09.33-.19V59.5a.29.29 0 0 0-.14-.28l-.62-.28v-.28l1.75-.52V63l.57-.52a2.48 2.48 0 0 0 .9-1 .37.37 0 0 0-.38-.28h-.14v-.38h2.32v.38h-.19a3.15 3.15 0 0 0-1.47 1l-.43.38 1.37 2a1 1 0 0 0 .52.47h.28v.38h-1.61v-.05zM125 65.57a2.19 2.19 0 0 1-2.13-2.37 2.5 2.5 0 0 1 2.46-2.65 1.57 1.57 0 0 1 1.67 1.61 2.31 2.31 0 0 1 0 .57h-3v.09a1.69 1.69 0 0 0 1.56 1.94 1.59 1.59 0 0 0 1.28-.62l.16.1a2.21 2.21 0 0 1-2 1.33zm.11-4.57a1.39 1.39 0 0 0-1.18 1.37h2c.07-.93-.3-1.37-.82-1.37zM127.24 65.38V65h.28c.24 0 .33-.09.33-.19V59.5a.29.29 0 0 0-.14-.28l-.62-.28v-.28l1.75-.52v6.68c0 .09 0 .19.38.19h.24v.38h-2.37zM132.16 65.57A2.19 2.19 0 0 1 130 63.2a2.5 2.5 0 0 1 2.46-2.65 1.57 1.57 0 0 1 1.71 1.61 2.31 2.31 0 0 1 0 .57h-3v.09a1.69 1.69 0 0 0 1.56 1.94 1.59 1.59 0 0 0 1.27-.66l.24.14a2.11 2.11 0 0 1-2.08 1.33zm.15-4.57a1.39 1.39 0 0 0-1.18 1.37h2c.03-.93-.3-1.37-.82-1.37zM139.74 61.07h-.28a.87.87 0 0 0-.62.71L137.61 65l-.61 1.7c-.28.9-.62 1.37-1.23 1.37a.67.67 0 0 1-.76-.62.52.52 0 0 1 .57-.57.8.8 0 0 1 .66.38 1.65 1.65 0 0 0 .43-.71l.33-1-1.85-4a.57.57 0 0 0-.52-.38l-.24-.09v-.38h2.42v.38l-.28.09a.22.22 0 0 0-.19.38l1.18 2.7.85-2.42c.14-.43.09-.57-.24-.62l-.33-.09v-.38h2zM196.45 17c-.85-4.26-3.84-7.25-8.29-7.25a7.22 7.22 0 0 0-7.58 7.3c0 7.44 10.61 9.19 10.61 13.93a2.28 2.28 0 0 1-2.51 2.37c-2.56 0-3.41-2-3.74-4.31l-5 1.37c.85 4.74 3.69 7.58 8.67 7.58 4.59 0 8-2.46 8-7.34 0-8.1-10.61-9.81-10.61-14.07 0-1.42 1-2.18 2.46-2.18 1.8 0 2.84 1.23 3.22 3.41zM173 30.84c-.95 1.37-2.23 2.51-3.79 2.51s-2.65-.71-2.65-2.46c0-2.37 1.28-4.26 6.44-7.2v7.15zm-6-12.55c.09-2.32.66-3.84 3.22-3.84 1.89 0 2.79 1.23 2.79 3.51v1.61c-8.15 3.08-12.08 6.4-12.08 12.36 0 3.51 1.94 6.11 5.78 6.11a9.51 9.51 0 0 0 6.63-2.65c0 .66.24 1.37.28 2.13H179a20.79 20.79 0 0 1-.33-2.89V17.2c0-5-3-7.39-8.24-7.39s-8.81 3-9.1 8.48H167zm-13.42 12.55c-.95 1.37-2.23 2.51-3.79 2.51s-2.65-.71-2.65-2.46c0-2.37 1.28-4.26 6.44-7.2v7.15zm-6-12.55c.09-2.32.66-3.84 3.22-3.84 1.89 0 2.79 1.23 2.79 3.51v1.61c-8.15 3.08-12.08 6.4-12.08 12.36 0 3.51 1.94 6.11 5.78 6.11a9.51 9.51 0 0 0 6.63-2.65c0 .66.24 1.37.28 2.13h5.4a20.79 20.79 0 0 1-.33-2.89V17.2c0-5-3-7.39-8.24-7.39s-8.81 3-9.1 8.48h5.64zm-20.77 19.23v-16.2h6.68v16.2h6.25V1h-6.25v14.87h-6.68V1h-6.25v36.52h6.25z" class="cls-1" transform="translate(0 -1)"/>
    <path d="M102.79 11.18l7 26.1c-.71 3.69-2.56 5.78-5.45 5.78h-1.09v3h1.89c4.41 0 6.92-3.41 8.29-9.14l6-25.77h-3.74l-4 20.13h-.09l-5-20.13h-3.74zm.1 13.82v-1.74c0-7.58-2.46-12.55-8.05-12.55s-8.05 4.17-8.05 13.64S89.29 38 94.84 38c4.78 0 7.77-3.65 8.34-7.58L99.72 30c-.47 2.37-1.61 5-4.41 5-3.46 0-4.93-2.13-4.93-8.53V25h12.51zm-12.46-3c0-6.25 1.75-8.2 4.41-8.2 3.27 0 4.31 2.51 4.41 8.2h-8.82zm-8.81 15.52h3.65V1h-3.65v36.52zM80.06 25v-1.74c0-7.58-2.46-12.55-8.05-12.55S64 14.88 64 24.35 66.46 38 72 38c4.78 0 7.77-3.65 8.34-7.58L76.88 30c-.47 2.37-1.61 5-4.41 5-3.46 0-4.93-2.13-4.93-8.53V25h12.52zm-12.41-3c0-6.25 1.75-8.2 4.41-8.2 3.27 0 4.31 2.51 4.41 8.2h-8.82zM48.89 37.52h3.65v-7.77L56 23.26h.09l4.74 14.26h3.74l-6.07-17.9 4.88-8.38h-3.74l-7 12.84h-.06V1h-3.65v36.52zm-12 0h3.61V18.81c2-3.74 4-4.64 6.77-4.64v-3.46c-2.89 0-4.5.52-6.68 3.69h-.09v-3.22h-3.65v26.34zM35.76 25v-1.74c0-7.58-2.46-12.55-8.05-12.55s-8.05 4.17-8.05 13.64S22.17 38 27.71 38c4.78 0 7.77-3.65 8.34-7.58L32.59 30c-.47 2.37-1.61 5-4.41 5-3.46 0-4.93-2.13-4.93-8.53V25h12.51zM23.3 22c0-6.25 1.75-8.2 4.41-8.2 3.27 0 4.31 2.51 4.41 8.2h-8.81zM3.93 4.32h3.93c4.64 0 6.49 1.52 6.49 5.68 0 5-2.51 6.68-8.2 6.68H3.93V4.32zm0 15.68h3.93c5.16 0 7.3 2.56 7.3 7.39s-2.51 6.77-7.3 6.77H3.93V20zM0 37.52h7.39c8 0 11.75-3.32 11.75-10.14 0-4.55-2-8.05-6.4-9.19v-.09c3.93-1.18 5.54-4.45 5.54-8.1 0-5.35-3.13-9-8.62-9H0v36.52z" class="cls-2" transform="translate(0 -1)"/>
</svg>
